<?xml version="1.0" standalone="no"?>
<!DOCTYPE svg PUBLIC "-//W3C//DTD SVG 20010904//EN"
 "http://www.w3.org/TR/2001/REC-SVG-20010904/DTD/svg10.dtd">
<svg version="1.0" xmlns="http://www.w3.org/2000/svg"
 width="540.000000pt" height="540.000000pt" viewBox="0 0 540.000000 540.000000"
 preserveAspectRatio="xMidYMid meet">
<metadata>
Created by potrace 1.14, written by Peter Selinger 2001-2017
</metadata>
<g transform="translate(0.000000,540.000000) scale(0.100000,-0.100000)"
fill="#000000" stroke="none">
<path d="M2828 5395 c-2 -1 -39 -5 -83 -9 -339 -27 -635 -105 -920 -241 -96
-47 -265 -141 -275 -155 -3 -3 -30 -23 -60 -43 -139 -91 -406 -335 -510 -465
-19 -24 -43 -53 -53 -64 -9 -12 -17 -22 -17 -24 0 -2 60 27 133 63 72 36 177
85 232 110 55 25 120 54 144 65 149 68 407 156 561 192 278 66 642 96 870 73
559 -59 928 -373 1058 -902 55 -219 63 -477 22 -640 -6 -22 -12 -47 -14 -55
-2 -8 -14 -42 -27 -75 -126 -338 -447 -589 -929 -729 -145 -43 -354 -85 -495
-102 -33 -3 -67 -8 -76 -9 -9 -2 -52 -6 -95 -10 -43 -4 -95 -9 -114 -11 -19
-2 -114 -6 -210 -9 -96 -3 -203 -8 -236 -10 -190 -15 -257 -128 -198 -333 99
-341 540 -887 1079 -1334 158 -131 145 -121 265 -208 271 -197 520 -335 735
-408 239 -81 449 -78 577 8 111 76 195 241 214 425 4 33 8 63 11 67 7 14 -7 9
-74 -23 -250 -119 -633 52 -1054 471 -193 192 -324 355 -446 555 -56 93 -93
207 -81 252 10 37 17 40 133 48 44 3 96 8 115 11 446 73 896 264 1089 462 132
137 278 376 349 572 48 132 85 292 100 430 9 85 9 448 -1 525 -41 330 -100
545 -212 770 -174 347 -461 596 -810 704 -167 51 -229 59 -472 58 -123 0 -224
-1 -225 -2z"/>
<path d="M2248 4555 c-2 -2 -37 -6 -78 -9 -41 -3 -84 -7 -95 -10 -11 -2 -40
-7 -65 -11 -25 -4 -56 -9 -70 -12 -70 -11 -265 -69 -354 -104 -202 -80 -350
-173 -482 -304 -115 -115 -175 -205 -213 -326 -44 -140 -44 -248 1 -384 113
-344 543 -627 1061 -700 441 -62 929 26 1223 221 67 45 158 142 188 202 24 48
40 102 31 102 -3 0 -26 -15 -52 -34 -68 -48 -176 -100 -279 -135 -163 -54
-251 -66 -469 -65 -134 1 -178 5 -272 27 -208 48 -354 120 -464 228 -197 195
-198 449 -2 659 141 151 361 260 638 316 11 2 31 6 45 9 14 2 48 7 75 10 28 3
61 7 75 10 31 7 343 7 390 0 19 -2 58 -7 85 -11 150 -18 340 -68 474 -126 24
-10 46 -17 48 -14 5 5 -51 70 -99 114 -229 209 -659 339 -1145 347 -105 2
-193 2 -195 0z"/>
</g>
</svg>
