<?xml version="1.0" encoding="UTF-8" standalone="no"?>
<!-- Created with Inkscape (http://www.inkscape.org/) -->

<svg
   width="100mm"
   height="100mm"
   viewBox="0 0 100 100"
   version="1.1"
   id="svg5674"
   inkscape:version="1.1 (c68e22c387, 2021-05-23)"
   sodipodi:docname="email.svg"
   xmlns:inkscape="http://www.inkscape.org/namespaces/inkscape"
   xmlns:sodipodi="http://sodipodi.sourceforge.net/DTD/sodipodi-0.dtd"
   xmlns="http://www.w3.org/2000/svg"
   xmlns:svg="http://www.w3.org/2000/svg">
  <sodipodi:namedview
     id="namedview5676"
     pagecolor="#ffffff"
     bordercolor="#666666"
     borderopacity="1.0"
     inkscape:pageshadow="2"
     inkscape:pageopacity="0.0"
     inkscape:pagecheckerboard="0"
     inkscape:document-units="mm"
     showgrid="false"
     width="100mm"
     inkscape:zoom="0.77771465"
     inkscape:cx="309.8823"
     inkscape:cy="252.66337"
     inkscape:window-width="1852"
     inkscape:window-height="1081"
     inkscape:window-x="1133"
     inkscape:window-y="143"
     inkscape:window-maximized="0"
     inkscape:current-layer="layer1" />
  <defs
     id="defs5671" />
  <g
     inkscape:label="Warstwa 1"
     inkscape:groupmode="layer"
     id="layer1">
    <rect
       style="fill:none;stroke-width:6.68575;stroke-dasharray:160.459, 6.68575"
       id="rect5782"
       width="100"
       height="100"
       x="7.1054274e-15"
       y="0" />
    <path
       style="fill:#f2f4f3;fill-opacity:1;stroke-width:0.139953"
       d="m 11.947185,78.564026 c -0.75992,-0.49436 -1.25825,-1.00757 -1.59701,-1.64469 -0.34853,-0.65549 -0.3514505,-0.69029 -0.3514505,-4.19006 v -3.52907 L 20.405065,58.847546 c 5.72349,-5.69395 10.49729,-10.38754 10.60844,-10.4302 0.28593,-0.10972 0.44406,-0.004 3.55601,2.375 1.53444,1.17308 4.8367,3.69249 7.33834,5.59868 2.50166,1.90618 5.16528,3.93786 5.91919,4.51484 2.11111,1.61568 2.11405,1.61716 2.61053,1.30686 0.47514,-0.29697 2.25495,-1.64998 8.89435,-6.76151 2.65813,-2.04644 4.94443,-3.79424 7.83247,-5.98769 0.84733,-0.64353 1.64382,-1.14727 1.77843,-1.12476 0.1341,0.0224 2.12016,1.89865 4.41348,4.16938 2.29332,2.27072 6.9879,6.91304 10.43242,10.31626 l 6.26274,6.18768 v 3.68655 3.68655 l -0.40086,0.63209 c -0.4697,0.74065 -0.95004,1.14558 -1.81029,1.52611 -0.6155,0.27227 -1.1024,0.27566 -38.07793,0.26557 -34.80178,-0.009 -37.48,-0.0268 -37.8152,-0.24493 z m -1.86831,-17.64227 c -0.1036105,-0.16766 -0.1093805,-28.26628 -0.006,-28.43383 0.14376,-0.23261 0.27718,-0.15628 1.78612,1.02169 0.81347,0.63503 2.14815,1.65843 2.96596,2.27422 0.81783,0.61579 1.97234,1.49749 2.56558,1.95933 0.59324,0.46184 1.34026,1.02865 1.66004,1.25958 0.31979,0.23091 1.32667,0.99155 2.2375,1.6903 0.91084,0.69875 2.42756,1.85713 3.37049,2.5742 0.96045,0.7304 1.71442,1.40426 1.71442,1.5323 -10e-6,0.20758 -15.92369,16.24569 -16.12978,16.24569 -0.0485,0 -0.12253,-0.0555 -0.1645,-0.12348 z m 76.19388,-3.45223 c -1.80889,-1.81373 -5.38292,-5.34935 -7.9423,-7.85692 -3.25508,-3.18921 -4.65206,-4.64825 -4.64892,-4.85547 0.003,-0.20532 0.37251,-0.5755 1.20337,-1.20595 0.65938,-0.50032 1.69195,-1.28756 2.29461,-1.7494 0.60264,-0.46184 1.80038,-1.37503 2.66163,-2.02931 0.86125,-0.65428 2.21715,-1.69342 3.01311,-2.30921 0.79596,-0.61579 2.15305,-1.65494 3.01575,-2.30921 0.8627,-0.65429 2.07175,-1.58283 2.68677,-2.06343 0.87051,-0.68027 1.16006,-0.83911 1.30712,-0.71706 0.15671,0.13006 0.18283,2.55611 0.15325,14.23737 -0.0314,12.3872 -0.0609,14.08515 -0.24558,14.11844 -0.11783,0.0212 -1.65294,-1.40905 -3.49881,-3.25985 z m -38.30247,-2.48954 c -1.72942,-1.33318 -8.63584,-6.59886 -13.92714,-10.61849 -1.28787,-0.97834 -3.11536,-2.36773 -4.06111,-3.08754 -0.94574,-0.71979 -2.75867,-2.09692 -4.02874,-3.06026 -2.28104,-1.73016 -4.26024,-3.23532 -6.57776,-5.00227 -1.42365,-1.08544 -5.15921,-3.92541 -7.48745,-5.69235 -0.92369,-0.70101 -1.75136,-1.42692 -1.83927,-1.61316 -0.1037805,-0.21984 -0.1278305,-0.70676 -0.0685,-1.38825 0.11209,-1.2886 0.58351,-2.07582 1.62791,-2.71839 l 0.69976,-0.43053 37.0966,-0.12024 c 28.102191,-0.091 37.287091,-0.0806 37.8823,0.0429 1.67943,0.34864 2.76463,1.73835 2.76463,3.54035 0,0.85074 -0.0407,0.99658 -0.36076,1.29322 -0.19842,0.18388 -1.91236,1.51917 -3.80876,2.9673 -4.62553,3.53216 -6.16156,4.70656 -7.65645,5.85387 -0.69276,0.53169 -1.88936,1.44486 -2.65909,2.02926 -2.91317,2.21172 -4.51433,3.4381 -5.5981,4.28775 -0.61579,0.48277 -1.27707,0.99623 -1.4695,1.14103 -0.55077,0.41444 -12.23112,9.33991 -13.76196,10.5161 -3.54332,2.72249 -4.61011,3.50563 -4.75986,3.49424 -0.089,-0.007 -0.99202,-0.65229 -2.0067,-1.43452 z"
       id="path5314" />
  </g>
</svg>
