<?xml version="1.0" encoding="UTF-8" standalone="no"?>
<!-- Generator: Adobe Illustrator 19.2.1, SVG Export Plug-In . SVG Version: 6.00 Build 0)  -->

<svg
   version="1.1"
   id="Layer_1"
   x="0px"
   y="0px"
   viewBox="0 0 202 54"
   xml:space="preserve"
   sodipodi:docname="deloitte.svg"
   width="202"
   height="54"
   inkscape:version="1.1 (c68e22c387, 2021-05-23)"
   xmlns:inkscape="http://www.inkscape.org/namespaces/inkscape"
   xmlns:sodipodi="http://sodipodi.sourceforge.net/DTD/sodipodi-0.dtd"
   xmlns="http://www.w3.org/2000/svg"
   xmlns:svg="http://www.w3.org/2000/svg"><defs
   id="defs29" /><sodipodi:namedview
   id="namedview27"
   pagecolor="#ffffff"
   bordercolor="#666666"
   borderopacity="1.0"
   inkscape:pageshadow="2"
   inkscape:pageopacity="0.0"
   inkscape:pagecheckerboard="0"
   showgrid="false"
   inkscape:zoom="6.1648352"
   inkscape:cx="91"
   inkscape:cy="16.95098"
   inkscape:window-width="3440"
   inkscape:window-height="1377"
   inkscape:window-x="-8"
   inkscape:window-y="-8"
   inkscape:window-maximized="1"
   inkscape:current-layer="Layer_1" />
<style
   type="text/css"
   id="style2">
	.st0{fill:#86BC25;}
	.st1{fill:#FFFFFF;}
</style>
<rect
   style="fill:#000000;stroke-width:43.8834;stroke-dasharray:1053.21, 43.8834"
   id="rect1070"
   width="202"
   height="54"
   x="0"
   y="0" /><g
   id="g24"
   transform="translate(10.3,10.05)">
	<path
   class="st0"
   d="m 171.8,29 c 0,-2.7 2.2,-4.8 4.8,-4.8 2.7,0 4.8,2.2 4.8,4.8 0,2.6 -2.2,4.8 -4.8,4.8 -2.6,0 -4.8,-2.1 -4.8,-4.8"
   id="path4" />
	<path
   class="st1"
   d="m 27.6,16.1 c 0,5.6 -1.4,9.8 -4.4,12.8 -3,3 -7.2,4.5 -12.6,4.5 H 0 V 0.1 h 11.2 c 5.3,0 9.3,1.3 12.1,4.1 2.9,2.7 4.3,6.7 4.3,11.9 m -9.2,0.3 c 0,-3.1 -0.6,-5.3 -1.8,-6.8 -1.1,-1.4 -3,-2.2 -5.4,-2.2 H 8.8 V 26 h 2 c 2.7,0 4.6,-0.8 5.9,-2.4 1.1,-1.6 1.7,-4 1.7,-7.2"
   id="path6" />
	<rect
   x="56.700001"
   class="st1"
   width="8.3000002"
   height="33.400002"
   id="rect8"
   y="0" />
	<path
   class="st1"
   d="m 92.4,20.9 c 0,4 -1,7.2 -3.2,9.5 -2.2,2.3 -5.2,3.4 -9,3.4 -3.7,0 -6.6,-1.1 -8.8,-3.5 -2.2,-2.4 -3.3,-5.5 -3.3,-9.4 0,-4 1,-7.2 3.2,-9.4 2.2,-2.3 5.2,-3.4 9,-3.4 2.4,0 4.5,0.5 6.3,1.5 1.9,1 3.2,2.5 4.2,4.4 1.2,2.1 1.6,4.3 1.6,6.9 m -15.7,0 c 0,2.2 0.3,3.7 0.8,4.8 0.5,1.1 1.4,1.6 2.8,1.6 1.4,0 2.2,-0.5 2.8,-1.6 0.5,-1.1 0.8,-2.8 0.8,-4.8 0,-2.2 -0.3,-3.7 -0.8,-4.8 -0.5,-1 -1.4,-1.6 -2.8,-1.6 -1.2,0 -2.2,0.5 -2.8,1.6 -0.5,1.1 -0.8,2.6 -0.8,4.8"
   id="path10" />
	<rect
   x="95.800003"
   y="8.5"
   class="st1"
   width="8.3000002"
   height="24.799999"
   id="rect12" />
	<rect
   x="95.800003"
   class="st1"
   width="8.3000002"
   height="5.5999999"
   id="rect14"
   y="0" />
	<path
   class="st1"
   d="m 121,27 c 1.1,0 2.5,-0.3 4,-0.8 v 6.3 c -1.1,0.5 -2.2,0.8 -3.2,1 -1,0.2 -2.2,0.3 -3.6,0.3 -2.8,0 -4.8,-0.7 -6.1,-2.2 -1.2,-1.4 -1.9,-3.6 -1.9,-6.5 V 14.9 h -2.9 V 8.5 h 2.9 V 2.3 l 8.4,-1.4 V 8.7 H 124 V 15 h -5.4 v 9.6 c 0.2,1.7 0.9,2.4 2.4,2.4"
   id="path16" />
	<path
   class="st1"
   d="m 140.4,27 c 1.1,0 2.5,-0.3 4,-0.8 v 6.3 c -1.1,0.5 -2.2,0.8 -3.2,1 -1,0.2 -2.2,0.3 -3.6,0.3 -2.8,0 -4.8,-0.7 -6.1,-2.2 -1.2,-1.4 -1.9,-3.6 -1.9,-6.5 V 14.9 h -2.9 V 8.5 h 2.9 V 2.2 L 138,0.9 v 7.8 h 5.4 V 15 H 138 v 9.6 c 0.1,1.7 0.9,2.4 2.4,2.4"
   id="path18" />
	<path
   class="st1"
   d="m 166.8,11 c -2,-2 -4.8,-2.9 -8.4,-2.9 -3.8,0 -6.8,1.1 -8.9,3.4 -2.1,2.3 -3.1,5.5 -3.1,9.7 0,4 1.1,7.2 3.3,9.4 2.3,2.2 5.4,3.3 9.4,3.3 2,0 3.6,-0.1 5,-0.4 1.3,-0.3 2.8,-0.7 4,-1.4 l -1.2,-5.6 c -0.9,0.4 -1.9,0.7 -2.7,0.9 -1.2,0.3 -2.6,0.4 -4,0.4 -1.6,0 -2.9,-0.4 -3.8,-1.1 -0.9,-0.8 -1.4,-1.9 -1.4,-3.3 h 14.9 V 19.5 C 169.8,15.8 168.7,13 166.8,11 M 155,17.9 c 0.1,-1.3 0.5,-2.4 1.1,-3 0.6,-0.6 1.4,-0.9 2.5,-0.9 1,0 2,0.3 2.6,1 0.6,0.7 0.9,1.6 1,2.9 z"
   id="path20" />
	<path
   class="st1"
   d="M 50.5,11 C 48.4,9 45.7,8.1 42.1,8.1 c -3.8,0 -6.8,1.1 -8.9,3.4 -2.1,2.3 -3.1,5.5 -3.1,9.7 0,4 1.1,7.2 3.3,9.4 2.3,2.2 5.4,3.3 9.4,3.3 2,0 3.6,-0.1 5,-0.4 1.3,-0.3 2.8,-0.7 4,-1.4 l -1.2,-5.7 c -0.9,0.4 -1.9,0.7 -2.7,0.9 -1.2,0.3 -2.6,0.4 -4,0.4 -1.6,0 -2.9,-0.4 -3.8,-1.1 -0.9,-0.8 -1.4,-1.9 -1.4,-3.3 H 53.6 V 19.5 C 53.5,15.8 52.4,13 50.5,11 m -11.9,6.9 c 0.1,-1.3 0.5,-2.4 1.1,-3 0.6,-0.6 1.4,-0.9 2.5,-0.9 1.1,0 2,0.3 2.6,1 0.6,0.7 0.9,1.6 1,2.9 z"
   id="path22" />
</g>
</svg>
