<?xml version="1.0" encoding="UTF-8" standalone="no"?>
<svg
   viewBox="0 0 271.754 280.67001"
   version="1.1"
   id="svg18"
   sodipodi:docname="az900.svg"
   width="271.754"
   height="280.67001"
   inkscape:version="1.1 (c68e22c387, 2021-05-23)"
   xmlns:inkscape="http://www.inkscape.org/namespaces/inkscape"
   xmlns:sodipodi="http://sodipodi.sourceforge.net/DTD/sodipodi-0.dtd"
   xmlns="http://www.w3.org/2000/svg"
   xmlns:svg="http://www.w3.org/2000/svg">
  <defs
     id="defs22" />
  <sodipodi:namedview
     id="namedview20"
     pagecolor="#ffffff"
     bordercolor="#666666"
     borderopacity="1.0"
     inkscape:pageshadow="2"
     inkscape:pageopacity="0.0"
     inkscape:pagecheckerboard="0"
     showgrid="false"
     inkscape:zoom="2.91"
     inkscape:cx="126.80412"
     inkscape:cy="150"
     inkscape:window-width="3440"
     inkscape:window-height="1377"
     inkscape:window-x="-8"
     inkscape:window-y="-8"
     inkscape:window-maximized="1"
     inkscape:current-layer="svg18" />
  <g
     id="g847"
     transform="translate(-14.143127,-9.6399903)">
    <path
       d="m 283.38,118.47 a 16.44,16.44 0 0 0 -10.75,-6.69 q -11.26,-1.95 -22.56,-3.52 V 54.43 A 21.54,21.54 0 0 0 235.49,34 l -0.16,-0.05 h -0.17 L 160.42,11.34 A 32.63,32.63 0 0 0 150,9.64 32.58,32.58 0 0 0 139.59,11.34 L 64.84,33.93 h -0.17 l -0.16,0.05 a 21.54,21.54 0 0 0 -14.58,20.4 v 53.83 q -11.3,1.58 -22.56,3.52 a 16.44,16.44 0 0 0 -10.75,6.69 13.48,13.48 0 0 0 -2.25,10.25 l 11,57.39 a 14.64,14.64 0 0 0 16.82,11.47 c 2.6,-0.45 5.2,-0.87 7.81,-1.29 0.15,14.32 5.62,28.23 16.3,41.36 8.15,10 19.37,19.62 33.34,28.52 a 244.66,244.66 0 0 0 47.18,23.07 l 3.28,1.12 3.27,-1.15 a 250.23,250.23 0 0 0 47.12,-23.35 c 14,-9 25.17,-18.56 33.3,-28.53 10.68,-13.09 16.16,-26.9 16.31,-41 2.61,0.42 5.21,0.84 7.81,1.29 a 14.92,14.92 0 0 0 2.48,0.21 14.62,14.62 0 0 0 14.34,-11.69 l 10.95,-57.37 a 13.49,13.49 0 0 0 -2.3,-10.25 z"
       fill="#002050"
       id="path2" />
    <path
       d="m 60,194.35 v 1.34 c 0,53.33 90,84.06 90,84.06 0,0 90,-31.52 90,-84.06 v -0.9 A 633.88,633.88 0 0 0 60,194.35 Z"
       fill="#0064b5"
       id="path4" />
    <path
       d="M 240,106.93 V 54.8 A 11.52,11.52 0 0 0 232.22,43.89 L 157.37,21.26 a 22.81,22.81 0 0 0 -14.72,0 L 67.74,43.89 A 11.52,11.52 0 0 0 60,54.8 v 52.13 a 720.59,720.59 0 0 1 180,0 z"
       fill="#ffffff"
       id="path6" />
    <path
       d="m 104,88.53 a 7.69,7.69 0 0 1 -3.64,0.77 5.89,5.89 0 0 1 -4.5,-1.8 6.7,6.7 0 0 1 -1.68,-4.74 7,7 0 0 1 1.9,-5.1 6.42,6.42 0 0 1 4.81,-2 7.78,7.78 0 0 1 3.11,0.54 v 1.64 a 6.39,6.39 0 0 0 -3.12,-0.78 4.78,4.78 0 0 0 -3.68,1.51 5.7,5.7 0 0 0 -1.41,4 5.4,5.4 0 0 0 1.32,3.83 4.49,4.49 0 0 0 3.45,1.43 A 6.5,6.5 0 0 0 104,87 Z m 13.43,0.55 h -7 V 75.93 h 6.68 v 1.4 H 112 v 4.37 h 4.75 v 1.39 H 112 v 4.6 h 5.43 z m 15.72,0 h -1.83 l -2.2,-3.68 a 7,7 0 0 0 -0.59,-0.88 3.25,3.25 0 0 0 -0.58,-0.59 2.38,2.38 0 0 0 -0.65,-0.34 2.57,2.57 0 0 0 -0.77,-0.1 h -1.27 v 5.59 h -1.54 V 75.93 h 3.93 a 5.41,5.41 0 0 1 1.59,0.22 3.55,3.55 0 0 1 1.27,0.65 3.17,3.17 0 0 1 0.84,1.1 4,4 0 0 1 0.09,2.8 3.22,3.22 0 0 1 -0.58,1 3.59,3.59 0 0 1 -0.92,0.76 4.53,4.53 0 0 1 -1.21,0.5 2.61,2.61 0 0 1 0.57,0.34 2.76,2.76 0 0 1 0.47,0.44 5.46,5.46 0 0 1 0.43,0.58 c 0.15,0.22 0.31,0.47 0.49,0.76 z m -7.89,-11.75 v 4.76 h 2.09 a 3,3 0 0 0 1.07,-0.17 2.48,2.48 0 0 0 0.85,-0.5 2.18,2.18 0 0 0 0.56,-0.8 2.54,2.54 0 0 0 0.2,-1.06 2,2 0 0 0 -0.68,-1.64 2.91,2.91 0 0 0 -2,-0.59 z m 20.4,0 h -3.8 v 11.75 h -1.54 V 77.33 h -3.79 v -1.4 h 9.13 z M 153,89.08 h -1.55 V 75.93 H 153 Z m 13.93,-11.75 h -5.14 v 4.55 h 4.75 v 1.38 h -4.75 v 5.82 h -1.54 V 75.93 h 6.68 z m 7.79,11.75 h -1.54 V 75.93 h 1.54 z m 14.2,0 h -7 V 75.93 h 6.68 v 1.4 h -5.13 v 4.37 h 4.75 v 1.39 h -4.75 v 4.6 h 5.43 z m 6.29,0 V 75.93 h 3.63 q 7,0 7,6.41 a 6.48,6.48 0 0 1 -1.93,4.9 7.17,7.17 0 0 1 -5.17,1.84 z m 1.54,-11.75 v 10.36 h 2 a 5.53,5.53 0 0 0 4,-1.39 5.15,5.15 0 0 0 1.45,-3.92 c 0,-3.37 -1.8,-5 -5.38,-5 z M 114.08,64.66 h -3.94 V 54.08 c 0,-1.14 0,-2.41 0.15,-3.79 h -0.1 a 18.74,18.74 0 0 1 -0.55,2.35 l -4.14,12 h -3.26 L 98,52.76 a 22.43,22.43 0 0 1 -0.56,-2.47 h -0.11 c 0.11,1.75 0.16,3.28 0.16,4.59 v 9.78 H 93.93 V 47 h 5.83 l 3.62,10.48 A 16.29,16.29 0 0 1 104,60 h 0.07 c 0.22,-1 0.46,-1.82 0.7,-2.55 L 108.39,47 h 5.69 z M 119.69,50 a 2.29,2.29 0 0 1 -1.62,-0.59 1.89,1.89 0 0 1 -0.63,-1.44 1.82,1.82 0 0 1 0.63,-1.43 2.66,2.66 0 0 1 3.24,0 1.85,1.85 0 0 1 0.62,1.43 1.9,1.9 0 0 1 -0.62,1.46 2.32,2.32 0 0 1 -1.62,0.57 z m 1.92,14.62 h -3.9 V 52 h 3.9 z m 12.85,-0.42 a 7.71,7.71 0 0 1 -3.81,0.76 6.42,6.42 0 0 1 -4.71,-1.76 6.08,6.08 0 0 1 -1.8,-4.55 6.7,6.7 0 0 1 1.93,-5.07 7.09,7.09 0 0 1 5.15,-1.86 6.59,6.59 0 0 1 3.24,0.6 v 3.3 a 4.46,4.46 0 0 0 -2.73,-0.91 3.58,3.58 0 0 0 -2.66,1 4.19,4.19 0 0 0 -0.07,5.29 3.47,3.47 0 0 0 2.58,0.95 5.13,5.13 0 0 0 2.85,-0.91 z m 10.78,-8.65 a 3.32,3.32 0 0 0 -1.64,-0.39 2.35,2.35 0 0 0 -2,0.93 4.06,4.06 0 0 0 -0.72,2.54 v 6 H 137 V 52 h 3.89 v 2.35 a 3.38,3.38 0 0 1 3.33,-2.57 2.47,2.47 0 0 1 1,0.15 z M 153,65 a 6.77,6.77 0 0 1 -5,-1.76 6.4,6.4 0 0 1 -1.81,-4.81 6.43,6.43 0 0 1 1.88,-4.9 7.06,7.06 0 0 1 5.06,-1.77 6.69,6.69 0 0 1 4.93,1.77 6.26,6.26 0 0 1 1.79,4.68 6.67,6.67 0 0 1 -1.84,5 A 6.85,6.85 0 0 1 153,65 Z m 0.1,-10.25 a 2.59,2.59 0 0 0 -2.15,0.95 4.23,4.23 0 0 0 -0.76,2.68 q 0,3.64 2.93,3.64 2.93,0 2.8,-3.73 -0.03,-3.58 -2.85,-3.58 z m 8.46,9.57 v -3.15 a 8.74,8.74 0 0 0 1.92,0.86 6.34,6.34 0 0 0 1.81,0.28 3.85,3.85 0 0 0 1.63,-0.28 0.92,0.92 0 0 0 0.6,-0.86 0.81,0.81 0 0 0 -0.27,-0.62 2.61,2.61 0 0 0 -0.7,-0.43 8.34,8.34 0 0 0 -0.93,-0.33 9.22,9.22 0 0 1 -1,-0.34 8.75,8.75 0 0 1 -1.33,-0.61 3.85,3.85 0 0 1 -1,-0.75 3,3 0 0 1 -0.59,-1 3.91,3.91 0 0 1 -0.21,-1.35 3.45,3.45 0 0 1 0.47,-1.82 3.68,3.68 0 0 1 1.23,-1.25 5.43,5.43 0 0 1 1.81,-0.67 9.31,9.31 0 0 1 2.07,-0.23 12.4,12.4 0 0 1 1.7,0.13 14.36,14.36 0 0 1 1.7,0.38 v 3 a 5.85,5.85 0 0 0 -1.59,-0.65 6.79,6.79 0 0 0 -1.65,-0.21 4,4 0 0 0 -0.72,0.06 2.35,2.35 0 0 0 -0.6,0.2 1.15,1.15 0 0 0 -0.41,0.33 0.78,0.78 0 0 0 -0.15,0.47 0.9,0.9 0 0 0 0.22,0.59 2.17,2.17 0 0 0 0.58,0.42 5.33,5.33 0 0 0 0.8,0.32 l 0.87,0.29 a 11.57,11.57 0 0 1 1.4,0.59 4.62,4.62 0 0 1 1.08,0.76 2.84,2.84 0 0 1 0.69,1 3.55,3.55 0 0 1 0.24,1.38 3.61,3.61 0 0 1 -0.48,1.91 3.85,3.85 0 0 1 -1.3,1.3 6.18,6.18 0 0 1 -1.86,0.73 10.43,10.43 0 0 1 -2.19,0.22 11.25,11.25 0 0 1 -3.84,-0.67 z M 179.51,65 a 6.77,6.77 0 0 1 -5,-1.76 6.43,6.43 0 0 1 -1.8,-4.81 6.42,6.42 0 0 1 1.87,-4.9 7.09,7.09 0 0 1 5.07,-1.77 6.72,6.72 0 0 1 4.93,1.77 6.29,6.29 0 0 1 1.78,4.68 6.67,6.67 0 0 1 -1.84,5 6.85,6.85 0 0 1 -5.01,1.79 z m 0.1,-10.25 a 2.57,2.57 0 0 0 -2.14,0.95 4.17,4.17 0 0 0 -0.77,2.68 q 0,3.64 2.94,3.64 2.94,0 2.79,-3.73 0,-3.58 -2.82,-3.58 z M 196.78,49 a 3.85,3.85 0 0 0 -1.44,-0.29 c -1.25,0 -1.87,0.67 -1.87,2 V 52 h 2.88 v 2.88 h -2.88 v 9.75 h -3.89 v -9.72 h -2.12 V 52 h 2.12 V 50.47 A 4.54,4.54 0 0 1 191,47 a 5.36,5.36 0 0 1 3.82,-1.32 6.47,6.47 0 0 1 2,0.25 z m 9.56,15.51 a 5.83,5.83 0 0 1 -2.6,0.45 q -4.12,0 -4.12,-4.27 v -5.78 h -2.05 V 52 h 2.05 V 49.31 L 203.5,48.2 V 52 h 2.84 v 2.88 H 203.5 V 60 c 0,1.31 0.52,2 1.57,2 a 2.64,2.64 0 0 0 1.27,-0.36 z"
       fill="#17154c"
       id="path8" />
    <path
       d="m 150,204.95 5.14,15.8 h 16.62 l -13.45,9.77 5.14,15.8 -13.45,-9.77 -13.45,9.77 5.14,-15.8 -13.45,-9.77 h 16.62 z"
       fill="#ffffff"
       id="path10" />
    <path
       d="m 283.38,118.47 a 16.44,16.44 0 0 0 -10.75,-6.69 Q 256.35,109 240,106.93 a 720.59,720.59 0 0 0 -180.08,0 Q 43.64,109 27.37,111.78 a 16.44,16.44 0 0 0 -10.75,6.69 13.48,13.48 0 0 0 -2.25,10.25 l 11,57.39 a 14.64,14.64 0 0 0 16.82,11.47 q 10.39,-1.79 20.82,-3.23 a 634.26,634.26 0 0 1 180.08,0.86 q 7.43,1.09 14.82,2.37 a 14.92,14.92 0 0 0 2.48,0.21 14.62,14.62 0 0 0 14.34,-11.69 l 10.95,-57.37 a 13.49,13.49 0 0 0 -2.3,-10.26 z"
       fill="#505050"
       id="path12" />
    <path
       d="m 271.66,117.42 a 716.06,716.06 0 0 0 -243.31,0 10.69,10.69 0 0 0 -7,4.31 7.8,7.8 0 0 0 -1.35,5.91 L 31,185 a 8.86,8.86 0 0 0 10.22,6.91 640.15,640.15 0 0 1 217.66,0 8.89,8.89 0 0 0 10.18,-6.91 L 280,127.65 a 7.77,7.77 0 0 0 -1.33,-5.92 10.69,10.69 0 0 0 -7.01,-4.31 z"
       fill="#ffffff"
       id="path14" />
    <path
       d="m 53.46,145.35 -6.3,0.9 0.62,4.39 5.8,-0.83 0.46,3.27 -5.8,0.82 1,6.95 -4,0.57 -2.54,-17.88 10.3,-1.47 z m 19.2,4.89 q 0.84,8.08 -6.7,8.87 -7.32,0.76 -8.14,-7.14 l -1.08,-10.37 4.06,-0.42 1.09,10.42 c 0.3,2.9 1.58,4.24 3.86,4 2.28,-0.24 3.19,-1.75 2.9,-4.55 l -1.1,-10.57 4,-0.42 z M 94,156.48 89.91,156.78 81.64,146 c -0.48,-0.63 -0.81,-1.11 -1,-1.43 a 27.21,27.21 0 0 1 0.31,2.91 l 0.71,9.9 -3.83,0.27 -1.29,-18 4.37,-0.31 7.93,10.45 c 0.36,0.47 0.7,0.94 1,1.41 a 20.71,20.71 0 0 1 -0.28,-2.46 l -0.71,-10 3.83,-0.28 z m 4.49,-0.24 -0.83,-18 6.39,-0.29 q 9.61,-0.45 10,8.35 a 8.9,8.9 0 0 1 -2.31,6.85 9.68,9.68 0 0 1 -6.87,2.83 z m 3.38,-14.92 0.53,11.43 2,-0.09 a 5.44,5.44 0 0 0 4.07,-1.77 6,6 0 0 0 1.31,-4.39 5.46,5.46 0 0 0 -1.68,-4 5.69,5.69 0 0 0 -4.25,-1.29 z m 31.51,13.68 -4.43,0.11 -1.39,-4 -6.42,0.16 -1.17,4 -4.4,0.11 6.11,-18.21 4.82,-0.13 z m -6.83,-7 -2.09,-6 a 7.75,7.75 0 0 1 -0.35,-1.61 H 124 a 7.16,7.16 0 0 1 -0.27,1.58 l -1.81,6.17 z m 30.08,6.88 h -4 v -10.81 c 0,-1.16 0,-2.45 0.14,-3.86 h -0.1 a 18.5,18.5 0 0 1 -0.56,2.39 l -4.19,12.3 h -3.32 l -4.35,-12.14 a 24.14,24.14 0 0 1 -0.58,-2.51 h -0.11 q 0.18,2.67 0.18,4.68 v 10 h -3.67 L 136,136.9 h 5.95 l 3.73,10.69 a 13.93,13.93 0 0 1 0.65,2.58 h 0.08 a 25,25 0 0 1 0.71,-2.61 l 3.65,-10.69 h 5.8 z m 15.37,0.25 -10.83,-0.13 0.28,-18.05 10.41,0.16 -0.05,3.32 -6.34,-0.1 -0.07,4 5.91,0.09 -0.05,3.3 -5.91,-0.09 -0.06,4.13 6.76,0.11 z m 19.58,0.62 -4.11,-0.14 -7.05,-11.61 a 15.9,15.9 0 0 1 -0.85,-1.53 v 2.92 l -0.34,9.92 -3.84,-0.13 0.62,-18 4.37,0.15 6.79,11.23 c 0.31,0.51 0.6,1 0.86,1.5 H 188 a 18.07,18.07 0 0 1 0,-2.48 l 0.34,-10 3.84,0.13 z m 18,-13.81 -5.15,-0.28 -0.8,14.72 -4.08,-0.22 0.81,-14.72 -5.12,-0.28 0.18,-3.31 14.34,0.79 z m 16.09,15.99 -4.42,-0.34 -1,-4.1 -6.4,-0.48 -1.57,3.91 -4.39,-0.33 7.91,-17.51 4.8,0.36 z m -6.09,-7.62 -1.48,-6.2 a 7.68,7.68 0 0 1 -0.18,-1.64 h -0.1 a 7.15,7.15 0 0 1 -0.43,1.55 L 215,150 Z m 19.42,8.99 -10.7,-1.09 1.83,-18 4.05,0.41 -1.5,14.68 6.65,0.68 z m 2.06,-0.46 0.53,-4 a 7.78,7.78 0 0 0 4.69,2.48 5.7,5.7 0 0 0 1.35,0 3,3 0 0 0 1,-0.25 1.68,1.68 0 0 0 0.65,-0.5 1.45,1.45 0 0 0 0.28,-0.69 1.57,1.57 0 0 0 -0.17,-1 3.54,3.54 0 0 0 -0.72,-0.87 8,8 0 0 0 -1.14,-0.84 c -0.44,-0.28 -0.93,-0.57 -1.45,-0.86 a 8,8 0 0 1 -2.84,-2.55 4.75,4.75 0 0 1 -0.62,-3.19 4.65,4.65 0 0 1 2.63,-3.78 7,7 0 0 1 2.37,-0.65 11.41,11.41 0 0 1 2.73,0.05 17.15,17.15 0 0 1 2.46,0.5 10.41,10.41 0 0 1 1.92,0.78 l -0.5,3.74 a 5.59,5.59 0 0 0 -0.9,-0.68 7.34,7.34 0 0 0 -1,-0.54 7.85,7.85 0 0 0 -1.09,-0.38 8.82,8.82 0 0 0 -1,-0.22 5.48,5.48 0 0 0 -1.27,0 3.12,3.12 0 0 0 -1,0.24 1.8,1.8 0 0 0 -0.67,0.49 1.31,1.31 0 0 0 -0.31,0.71 1.42,1.42 0 0 0 0.13,0.84 2.61,2.61 0 0 0 0.58,0.76 7.13,7.13 0 0 0 1,0.77 c 0.39,0.26 0.83,0.53 1.33,0.81 a 16.57,16.57 0 0 1 1.8,1.22 7.14,7.14 0 0 1 1.31,1.33 4.49,4.49 0 0 1 0.74,1.58 5,5 0 0 1 0.07,2 5.11,5.11 0 0 1 -0.9,2.44 4.63,4.63 0 0 1 -1.76,1.44 6.67,6.67 0 0 1 -2.39,0.6 13.57,13.57 0 0 1 -2.76,-0.08 15.79,15.79 0 0 1 -2.77,-0.63 8.33,8.33 0 0 1 -2.31,-1.07 z"
       fill="#282828"
       id="path16" />
  </g>
</svg>
