<?xml version="1.0" encoding="UTF-8" standalone="no"?>
<!-- Created with Inkscape (http://www.inkscape.org/) -->

<svg
   width="70.582069mm"
   height="44.677551mm"
   viewBox="0 0 70.582069 44.677551"
   version="1.1"
   id="svg5"
   xml:space="preserve"
   xmlns:inkscape="http://www.inkscape.org/namespaces/inkscape"
   xmlns:sodipodi="http://sodipodi.sourceforge.net/DTD/sodipodi-0.dtd"
   xmlns="http://www.w3.org/2000/svg"
   xmlns:svg="http://www.w3.org/2000/svg"><sodipodi:namedview
     id="namedview7"
     pagecolor="#ffffff"
     bordercolor="#000000"
     borderopacity="0.25"
     inkscape:showpageshadow="2"
     inkscape:pageopacity="0.0"
     inkscape:pagecheckerboard="0"
     inkscape:deskcolor="#d1d1d1"
     inkscape:document-units="mm"
     showgrid="false" /><defs
     id="defs2" /><g
     inkscape:label="Warstwa 1"
     inkscape:groupmode="layer"
     id="layer1"
     transform="translate(-77.269007,-155.9324)"><g
       id="g2310"
       transform="translate(11.567673,44.824733)"><path
         style="fill:#3e3e3e;stroke-width:0.264583"
         d="m 65.975332,155.56357 c -0.196219,-0.12435 -0.313913,-0.44995 -0.261542,-0.72355 0.08587,-0.44863 0.437216,-0.51045 3.579061,-0.62976 l 3.483841,-0.13229 -2.404305,-3.65281 c -2.063201,-3.13458 -2.351439,-3.70507 -2.031674,-4.02114 0.274024,-0.27085 9.188591,-1.25007 33.687407,-3.70041 18.32313,-1.83265 33.5036,-3.29573 33.73438,-3.25128 1.17699,0.22667 0.24117,1.33034 -6.69309,7.89355 l -7.11269,6.73209 7.10927,0.13229 c 6.69107,0.12451 7.11489,0.16156 7.20487,0.62976 0.0526,0.2736 -0.065,0.5992 -0.26117,0.72355 -0.46636,0.29555 -69.567988,0.29555 -70.034358,0 z m 4.3783,-12.29136 c -0.21434,-0.55856 0.06013,-0.78811 2.562485,-2.14309 9.237845,-5.00214 16.307996,-11.72576 24.180163,-22.99499 1.407986,-2.01557 2.785563,-3.82268 3.06128,-4.0158 0.48935,-0.34276 0.48793,-0.3699 -0.0595,-1.13867 -0.67131,-0.94277 -0.692686,-1.19304 -0.141008,-1.65089 0.342858,-0.28455 1.107368,-0.29148 4.172578,-0.0379 12.93892,1.07063 21.37921,6.83116 27.02603,18.44539 0.77827,1.60072 1.74998,3.8881 2.15935,5.08304 0.97018,2.83196 0.86961,2.94668 -2.07993,2.37242 -9.7115,-1.89076 -18.9549,-0.98433 -28.61698,2.80624 l -2.07857,0.81544 -2.287059,-0.48762 c -6.200609,-1.32203 -14.008619,-0.56844 -23.409155,2.25932 -3.788307,1.13956 -4.286792,1.21584 -4.489704,0.68706 z m 32.085708,-8.24777 c 2.64587,-5.47137 2.62871,-11.54365 -0.0502,-17.76256 -0.48258,-1.12028 -1.00244,-2.07855 -1.15525,-2.12949 -0.37569,-0.12523 -2.025681,3.99608 -2.77487,6.931 -0.898697,3.52061 -0.856864,8.63218 0.09636,11.77396 0.375285,1.23692 0.942864,2.83475 1.261287,3.55072 l 0.578953,1.30177 0.63715,-1.03718 c 0.35044,-0.57045 0.98339,-1.75315 1.40656,-2.62822 z"
         id="path2312"
         inkscape:export-filename="path2312.svg"
         inkscape:export-xdpi="96"
         inkscape:export-ydpi="96" /></g></g></svg>
