<?xml version="1.0" encoding="UTF-8" standalone="no"?>
<!-- Created with Inkscape (http://www.inkscape.org/) -->

<svg
   width="90mm"
   height="90mm"
   viewBox="0 0 90 90"
   version="1.1"
   id="svg5"
   inkscape:version="1.1 (c68e22c387, 2021-05-23)"
   sodipodi:docname="default.svg"
   xmlns:inkscape="http://www.inkscape.org/namespaces/inkscape"
   xmlns:sodipodi="http://sodipodi.sourceforge.net/DTD/sodipodi-0.dtd"
   xmlns="http://www.w3.org/2000/svg"
   xmlns:svg="http://www.w3.org/2000/svg">
  <sodipodi:namedview
     id="namedview7"
     pagecolor="#ffffff"
     bordercolor="#666666"
     borderopacity="1.0"
     inkscape:pageshadow="2"
     inkscape:pageopacity="0.0"
     inkscape:pagecheckerboard="0"
     inkscape:document-units="mm"
     showgrid="false"
     width="90mm"
     inkscape:zoom="1.4142136"
     inkscape:cx="258.44753"
     inkscape:cy="175.00893"
     inkscape:window-width="2129"
     inkscape:window-height="1081"
     inkscape:window-x="974"
     inkscape:window-y="129"
     inkscape:window-maximized="0"
     inkscape:current-layer="layer1" />
  <defs
     id="defs2" />
  <g
     inkscape:label="Warstwa 1"
     inkscape:groupmode="layer"
     id="layer1">
    <g
       id="g2020">
      <rect
         style="fill:none;stroke-width:2.61689;stroke-dasharray:62.8056, 2.61689"
         id="rect1777"
         width="90"
         height="90"
         x="5.9595646e-07"
         y="2.3668834e-07" />
      <g
         id="g1753"
         transform="matrix(11.291393,0,0,11.291393,-1033.8023,-1502.7473)">
        <g
           id="g1002">
          <rect
             style="fill:#000000;stroke-width:3.43819;stroke-dasharray:82.517, 3.43819"
             id="rect1169"
             width="6.2220001"
             height="6.2220001"
             x="92.431"
             y="134.00935"
             ry="3.1110001" />
          <path
             style="fill:#7e3871;stroke-width:0.0148191"
             d="m 97.11113,141.03999 c -0.339859,-0.0755 -0.809145,-0.31251 -1.251024,-0.6317 -0.0944,-0.0682 -0.204757,-0.14765 -0.245233,-0.17658 -0.30288,-0.2165 -0.977439,-0.87135 -1.250165,-1.21365 -0.380203,-0.47719 -0.574406,-0.84612 -0.577656,-1.0974 -0.0015,-0.11893 0.01736,-0.17311 0.08119,-0.2327 0.07504,-0.0701 0.13511,-0.0823 0.464304,-0.0946 0.530094,-0.0198 0.872249,-0.0549 1.229989,-0.12639 1.406166,-0.28086 2.030568,-1.05185 1.791516,-2.21211 -0.119121,-0.57817 -0.435419,-1.0237 -0.882972,-1.24375 -0.152473,-0.075 -0.299156,-0.12414 -0.501018,-0.16795 -0.136863,-0.0297 -0.195755,-0.0337 -0.489032,-0.0331 -0.813193,0.002 -1.415078,0.16376 -2.352326,0.6335 -0.107878,0.0541 -0.200192,0.0983 -0.205143,0.0983 -0.01618,0 0.116322,-0.1523 0.275221,-0.31634 0.305438,-0.31533 0.635847,-0.5573 1.022622,-0.7489 0.555728,-0.2753 1.083682,-0.38607 1.852392,-0.38866 0.262281,-8.8e-4 0.345011,0.004 0.46793,0.0286 0.693163,0.13777 1.234395,0.6041 1.508042,1.29933 0.144857,0.36803 0.218344,0.75547 0.240564,1.26832 0.02562,0.59136 -0.129553,1.17145 -0.432358,1.61629 -0.236858,0.34796 -0.389506,0.47782 -0.781957,0.66524 -0.400649,0.19133 -1.012747,0.35499 -1.327693,0.35499 -0.100001,0 -0.124255,0.0266 -0.115925,0.12703 0.01194,0.14403 0.152094,0.39379 0.402612,0.71749 0.139166,0.17982 0.528775,0.57764 0.690827,0.70539 0.06113,0.0482 0.117812,0.0954 0.125962,0.10483 0.02544,0.0296 0.261637,0.17671 0.3742,0.23311 0.0591,0.0296 0.167911,0.0712 0.241802,0.0924 0.11409,0.0327 0.156198,0.0377 0.279261,0.0327 0.12524,-0.005 0.157403,-0.012 0.236915,-0.0514 l 0.092,-0.0456 -0.01008,0.0831 c -0.01601,0.13199 -0.06208,0.29779 -0.109937,0.39565 -0.06695,0.13691 -0.147412,0.21893 -0.278166,0.28357 -0.110022,0.0544 -0.117917,0.056 -0.29171,0.0592 -0.113169,0.002 -0.213925,-0.005 -0.274952,-0.0182 z m -2.385881,-3.92879 c -0.652455,-0.0412 -1.213736,-0.25757 -1.560808,-0.60164 -0.242792,-0.2407 -0.356426,-0.49354 -0.349588,-0.77785 0.006,-0.25079 0.148499,-0.52737 0.389635,-0.75642 0.111274,-0.1057 0.364371,-0.28439 0.497143,-0.35098 0.226322,-0.11352 0.590223,-0.22079 0.912475,-0.26898 0.214864,-0.0321 0.730914,-0.0371 0.933605,-0.009 0.643007,0.0893 1.09858,0.2748 1.368904,0.55739 0.05195,0.0543 0.09135,0.10185 0.08755,0.10564 -0.0038,0.004 -0.05366,-0.0124 -0.11081,-0.0359 -0.471267,-0.19433 -1.12255,-0.24953 -1.664259,-0.14105 -0.592144,0.11859 -1.023574,0.41968 -1.132279,0.79022 -0.0494,0.16839 -0.01561,0.36194 0.09221,0.52816 0.2906,0.448 1.157289,0.63787 1.876258,0.41103 0.145527,-0.0459 0.348467,-0.14602 0.444309,-0.21918 l 0.07082,-0.0541 -0.01062,0.0491 c -0.08791,0.40649 -0.778823,0.74304 -1.585211,0.77217 -0.09781,0.004 -0.214507,0.004 -0.259335,10e-4 z"
             id="path966" />
        </g>
      </g>
    </g>
  </g>
</svg>
